<?xml version="1.0" encoding="UTF-8" standalone="no"?><!DOCTYPE svg PUBLIC "-//W3C//DTD SVG 1.1//EN" "http://www.w3.org/Graphics/SVG/1.1/DTD/svg11.dtd"><svg width="100%" height="100%" viewBox="0 0 3029 404" version="1.1" xmlns="http://www.w3.org/2000/svg" xmlns:xlink="http://www.w3.org/1999/xlink" xml:space="preserve" xmlns:serif="http://www.serif.com/" style="fill-rule:evenodd;clip-rule:evenodd;stroke-linejoin:round;stroke-miterlimit:2;"><path id="logo" d="M200,404l-64,-64l0,-101.49l-50.745,50.745l-85.255,-85.255l72,-72l0,80l64,-64l0,-80l64,-64l-0,400Zm32,-400l64,64l0,181.49l64,-64l0,-53.49l72,72l-200,200l-0,-400Z"/><g id="haulvisor-txt-curves" serif:id="haulvisor txt curves"><path d="M868.981,400l0,-400l-59.235,0l0,160l-118.471,0l0,-160l-59.235,0l0,400l59.235,0l0,-185.143l118.471,0l0,185.143l59.235,0Z" style="fill-rule:nonzero;"/><path d="M1194.776,400l-103.36,-400l-61.049,0l-103.964,400l62.862,0l24.178,-105.714l91.875,0l24.782,105.714l64.675,0Zm-101.546,-158.857l-67.698,0l15.716,-67.429c6.044,-26.857 15.111,-72.571 18.133,-87.429c3.022,14.857 12.089,61.143 18.133,87.429l15.716,67.429Z" style="fill-rule:nonzero;"/><path d="M1477.866,276.793l0,-276.793l-58.631,0l0,278.481c0,30.38 -13.298,65.823 -59.84,65.823c-44.124,0 -59.235,-33.755 -59.235,-66.385l0,-277.918l-59.235,0l0,280.169c0,71.449 48.355,119.831 118.471,119.831c72.533,0 118.471,-46.695 118.471,-123.207Z" style="fill-rule:nonzero;"/><path d="M1755.306,400l0,-54.857l-135.395,0l0,-345.143l-59.235,0l0,400l194.631,0Z" style="fill-rule:nonzero;"/><path d="M2006.415,0l-62.862,0l-48.355,200.571c-4.836,21.143 -15.716,70.286 -18.738,84.571c-3.022,-14.286 -13.902,-64 -18.738,-84.571l-48.96,-200.571l-64.675,0l108.8,400l44.124,0l109.404,-400Z" style="fill-rule:nonzero;"/><rect x="2066.859" y="0" width="59.235" height="400" style="fill-rule:nonzero;"/><path d="M2415.018,293.629c0,-64.82 -41.707,-94.737 -94.293,-125.762c-47.147,-27.701 -61.653,-43.767 -61.653,-72.576c0,-24.377 15.716,-40.997 44.124,-40.997c26.596,0 40.498,8.864 61.049,33.795l43.52,-35.457c-25.387,-33.795 -53.795,-52.632 -102.755,-52.632c-65.884,0 -106.986,40.443 -106.986,96.953c0,60.942 37.475,89.197 85.227,118.006c56.818,34.349 70.72,51.524 70.72,81.44c0,31.579 -18.738,49.307 -50.773,49.307c-25.991,0 -45.938,-9.972 -68.907,-43.213l-46.542,34.349c24.178,37.673 58.631,63.158 111.822,63.158c74.951,0 115.449,-44.321 115.449,-106.371Z" style="fill-rule:nonzero;"/><path d="M2720.499,199.446c0,-112.465 -38.684,-199.446 -128.142,-199.446c-89.458,0 -127.538,88.089 -127.538,200.554c0,112.465 37.475,199.446 126.933,199.446c89.458,0 128.746,-88.089 128.746,-200.554Zm-60.444,1.108c0,72.022 -15.111,145.152 -66.489,145.152c-51.378,0 -68.302,-74.238 -68.302,-146.26c0,-72.022 14.507,-145.152 65.884,-145.152c51.378,0 68.907,74.238 68.907,146.26Z" style="fill-rule:nonzero;"/><path d="M3028.161,400l-67.698,-184c39.893,-14.857 66.489,-47.429 66.489,-105.143c0,-79.429 -56.213,-110.857 -117.866,-110.857l-119.075,0l0,400l59.235,0l0,-174.286l48.96,0l64.071,174.286l65.884,0Zm-62.258,-287.429c0,41.714 -23.573,59.429 -61.653,59.429l-55.004,0l0,-117.714l55.004,0c35.662,0 61.653,17.143 61.653,58.286Z" style="fill-rule:nonzero;"/></g></svg>