<?xml version="1.0" encoding="UTF-8" standalone="no"?><!DOCTYPE svg PUBLIC "-//W3C//DTD SVG 1.1//EN" "http://www.w3.org/Graphics/SVG/1.1/DTD/svg11.dtd"><svg width="100%" height="100%" viewBox="0 0 2661 400" version="1.1" xmlns="http://www.w3.org/2000/svg" xmlns:xlink="http://www.w3.org/1999/xlink" xml:space="preserve" xmlns:serif="http://www.serif.com/" style="fill-rule:evenodd;clip-rule:evenodd;stroke-linejoin:round;stroke-miterlimit:2;"><g id="lowercase-letters" serif:id="lowercase letters"><path d="M868.981,400l0,-400l-59.235,0l0,160l-118.471,0l0,-160l-59.235,0l0,400l59.235,0l0,-185.143l118.471,0l0,185.143l59.235,0Z" style="fill:#fff;fill-rule:nonzero;"/><path d="M1139.772,393.964l0,-207.956c0,-64.198 -26.596,-86.145 -94.898,-86.145c-29.013,0 -62.258,9.877 -91.271,27.435l24.782,40.055c24.178,-13.169 42.311,-18.107 62.258,-18.107c30.827,0 41.102,13.169 41.102,41.152l0,27.984c-12.693,-5.487 -29.013,-9.328 -48.355,-9.328c-60.444,0 -103.36,31.824 -103.36,94.376c0,64.746 39.893,96.571 86.435,96.571c28.409,0 48.96,-8.779 65.28,-25.789l0,19.753l58.027,0Zm-58.027,-68.587c-10.88,17.01 -29.013,26.886 -53.795,26.886c-24.782,0 -39.893,-15.912 -39.893,-49.931c0,-31.276 18.738,-45.542 45.938,-45.542c21.76,0 33.849,3.292 47.751,10.974l0,57.613Z" style="fill:#fff;fill-rule:nonzero;"/><path d="M1408.749,393.964l0,-288.066l-58.027,0l0,217.833c-11.484,17.01 -29.013,26.337 -47.147,26.337c-29.013,0 -39.289,-19.204 -39.289,-66.941l0,-177.229l-58.027,0l0,186.008c0,72.428 21.76,108.093 82.809,108.093c27.2,0 48.96,-10.974 61.653,-25.789l0,19.753l58.027,0Z" style="fill:#fff;fill-rule:nonzero;"/><path d="M1538.704,400l0,-400l-58.027,27.435l0,372.565l58.027,0Z" style="fill:#fff;fill-rule:nonzero;"/><path d="M1815.539,111.934l-59.235,0l-36.871,154.184c-4.231,18.656 -13.298,59.808 -15.716,73.525c-2.418,-13.717 -11.484,-53.772 -16.32,-72.428l-38.684,-155.281l-59.235,0l79.787,288.066l67.093,0l79.182,-288.066Z" style="fill:#fff;fill-rule:nonzero;"/><path d="M1929.779,34.568c0,-18.107 -16.32,-32.922 -35.662,-32.922c-19.947,0 -36.267,14.815 -36.267,32.922c0,17.558 16.32,32.373 36.267,32.373c19.342,0 35.662,-14.815 35.662,-32.373Zm-6.649,365.432l0,-288.066l-58.027,0l0,288.066l58.027,0Z" style="fill:#fff;fill-rule:nonzero;"/><path d="M2172.765,314.952c0,-47.188 -27.2,-65.844 -74.951,-91.084c-42.915,-22.497 -51.982,-31.276 -51.982,-48.834c0,-14.266 9.671,-25.24 31.431,-25.24c19.947,0 43.52,8.23 64.071,21.399l23.573,-44.444c-23.573,-16.461 -54.4,-26.886 -86.435,-26.886c-57.422,0 -90.666,30.178 -90.666,80.11c0,45.542 26.596,64.198 65.884,85.048c44.124,23.045 61.049,33.471 61.049,53.772c0,18.656 -15.716,31.276 -41.707,31.276c-21.156,0 -44.729,-8.23 -73.742,-24.691l-22.364,43.896c27.804,18.656 63.467,30.727 97.315,30.727c61.653,0 98.524,-30.178 98.524,-85.048Z" style="fill:#fff;fill-rule:nonzero;"/><path d="M2444.634,249.108c0,-100.412 -46.542,-149.246 -113.635,-149.246c-70.72,0 -114.844,50.48 -114.844,151.44c0,100.96 46.542,148.697 112.426,148.697c70.115,0 116.053,-49.931 116.053,-150.892Zm-58.631,1.097c0,59.808 -19.342,99.314 -55.609,99.314c-36.267,0 -55.609,-33.471 -55.609,-99.314c0,-65.844 18.738,-99.863 55.004,-99.863c36.267,0 56.213,34.568 56.213,99.863Z" style="fill:#fff;fill-rule:nonzero;"/><path d="M2660.42,115.775c-9.671,-5.487 -23.573,-9.877 -43.52,-9.877c-23.573,0 -43.52,10.974 -56.213,25.789l0,-19.753l-58.027,0l0,288.066l58.027,0l0,-217.833c13.298,-17.558 29.013,-22.497 45.333,-22.497c18.133,0 29.013,2.743 40.498,8.779l13.902,-52.675Z" style="fill:#fff;fill-rule:nonzero;"/></g><path id="logo" d="M200,400l-64,-64l0,-101.49l-50.745,50.745l-85.255,-85.255l72,-72l0,80l64,-64l0,-80l64,-64l-0,400Zm32,-400l64,64l0,181.49l64,-64l0,-53.49l72,72l-200,200l-0,-400Z" style="fill:#fff;"/></svg>